:SAMPLES-PER-SECOND 30
:FULLY-SPECIFIED
:DEGREES
23
root  34.87252663 36.59333657 -14.10032708 9.953065872 -3.988582611 3.032512665
lowerback  -9.35531044 -0.04858192056 -0.2998533547
upperback  -3.396142483 0.4282999933 -3.333017349
thorax  1.738209963 0.365704 -3.230000019
lowerneck  -14.11620045 -6.443540096 -5.216879845
upperneck  16.41990089 -8.938559532 7.998789787
head  8.012660027 -3.684550047 2.505670309
lclavicle  0 -4.497500157e-015 -2.743230041e-014
lhumerus  -48.28129959 31.84939957 63.00690079
lradius  0.001172923949 -6.507048965e-006 29.60560036
lwrist  3.192251654e-007 -3.790274832e-007 -29.13139915
lhand  -4.417598518e-031 -36.93370056 -10.70590019
lfingers  90 7.125020027 -90
lthumb  94.83841487 -25.53999318 101.1078154
rclavicle  0 -4.497500157e-015 -2.743230041e-014
rhumerus  -51.2901001 -38.38940048 -54.17379761
rradius  -5.16745672e-007 2.214343908e-008 39.59830093
rwrist  0.0003490542294 -0.002273720223 -147.3769989
rhand  -1.767715598e-031 -2.828170061 -7.425320148
rfingers  -90 -7.125020027 -90
rthumb  -86.51129294 -8.205743465 -66.87077314
rfemur  -10.64046001 14.8983984 12.70738602
rtibia  0.4761947095 -0.9849866033 17.17969513
rfoot  1.70719099 -21.69763756 -35.32209396
rtoes  4.077286091 19.59666582 -101.9986358
lfemur  -3.889022827 -15.72858143 -21.9856472
ltibia  6.611730099 0.08639600128 7.356230736
lfoot  0.1880981326 -22.06396294 35.72388077
ltoes  -8.701418428 -18.078123 -116.2525497
24
root  34.87121101 36.5938442 -14.09626007 9.959277153 -3.963044882 3.019296885
lowerback  -9.332099915 -0.05863456801 -0.305639118
upperback  -3.397387743 0.4153029919 -3.339099884
thorax  1.726369977 0.3591989875 -3.234178782
lowerneck  -14.09319973 -6.49353981 -5.233419895
upperneck  16.39360046 -9.002750397 7.989649773
head  8.004739761 -3.718690157 2.497800112
lclavicle  0 -4.497500157e-015 -2.743230041e-014
lhumerus  -48.26010132 31.8913002 62.98920059
lradius  0.001172923949 -6.507048965e-006 29.59738922
lwrist  3.192251654e-007 -3.790274832e-007 -29.1317997
lhand  -0 -36.98429871 -10.71220016
lfingers  90 7.125020027 -90
lthumb  94.8635401 -25.54429634 101.1626114
rclavicle  0 -4.497500157e-015 -2.743230041e-014
rhumerus  -51.06439972 -37.72819901 -54.85639954
rradius  -5.16745672e-007 2.214343908e-008 40.32180023
rwrist  0.0003490542294 -0.002273720223 -148.2169952
rhand  -1.767643932e-031 -2.780750036 -7.426239967
rfingers  -90 -7.125020027 -90
rthumb  -86.50287629 -8.207292591 -66.8246215
rfemur  -10.62284565 14.87754726 12.72553158
rtibia  0.4900971651 -0.9738430977 17.15653038
rfoot  1.72063601 -21.68691444 -35.30589294
rtoes  4.077712132 19.59658051 -101.9999061
lfemur  -3.716989517 -15.67904854 -22.03711891
ltibia  6.758295536 0.1214101762 7.067605019
lfoot  0.1846682727 -22.02749825 35.73772812
ltoes  -8.718934875 -18.06989996 -116.3090097
25
root  34.87008463 36.59256762 -14.09233874 9.94258213 -3.946846724 3.047484398
lowerback  -9.331270218 -0.06619691849 -0.2854681909
upperback  -3.399379492 0.4029250145 -3.329580069
thorax  1.717569947 0.3528519869 -3.240109921
lowerneck  -14.0248003 -6.548419952 -5.335830212
upperneck  16.31060028 -9.071359634 8.079580307
head  7.979459763 -3.753230095 2.537240028
lclavicle  0 -4.497500157e-015 -2.743230041e-014
lhumerus  -48.25189972 31.92079926 62.98749924
lradius  0.001172923949 -6.507048965e-006 29.58109856
lwrist  3.192251654e-007 -3.790274832e-007 -29.12140083
lhand  -4.419251534e-031 -36.96220016 -10.70400047
lfingers  90 7.125020027 -90
lthumb  94.85142675 -25.53707256 101.1382397
rclavicle  0 -4.497500157e-015 -2.743230041e-014
rhumerus  -50.88700104 -37.18370056 -55.40250397
rradius  -5.16745672e-007 2.214343908e-008 41.10430145
rwrist  0.0003490542294 -0.002273720223 -148.7870026
rhand  -3.534725302e-031 -2.586210012 -7.559510231
rfingers  -90 -7.125020027 -90
rthumb  -86.52009333 -8.094882938 -66.64269016
rfemur  -10.59874916 14.87567329 12.70691395
rtibia  0.4846624434 -0.9673392177 17.1776123
rfoot  1.705802798 -21.67762184 -35.32558441
rtoes  4.075155514 19.59709229 -101.9922835
lfemur  -3.422357559 -15.6226387 -22.20275307
ltibia  7.006615639 0.0921022445 6.598633289
lfoot  0.1386583894 -21.79981041 35.66507721
ltoes  -8.738665583 -18.06061251 -116.3726366
26
root  34.86885912 36.59235136 -14.08858862 9.954983711 -3.931152105 3.045219898
lowerback  -9.296271324 -0.07166621834 -0.2938247025
upperback  -3.401890278 0.3955599964 -3.332720041
thorax  1.69422996 0.3490290046 -3.239429951
lowerneck  -13.98999977 -6.616209984 -5.440619946
upperneck  16.30789948 -9.155270576 8.143269539
head  7.986770153 -3.79404974 2.565649986
lclavicle  0 -4.497500157e-015 -2.743230041e-014
lhumerus  -48.23400116 31.87080002 63.0284996
lradius  0.001172923949 -6.507048965e-006 29.60619926
lwrist  3.192251654e-007 -3.790274832e-007 -29.08289909
lhand  -0 -36.95000076 -10.71609974
lfingers  90 7.125020027 -90
lthumb  94.84828971 -25.54945248 101.1262778
rclavicle  0 -4.497500157e-015 -2.743230041e-014
rhumerus  -50.7492981 -36.62200165 -55.92509842
rradius  -5.16745672e-007 2.214343908e-008 42.00080109
rwrist  0.0003490542294 -0.002273720223 -149.3950043
rhand  -1.767346803e-031 -2.574810028 -7.73443985
rfingers  -90 -7.125020027 -90
rthumb  -86.58805403 -7.934849772 -66.64129338
rfemur  -10.59341621 14.85169315 12.70824051
rtibia  0.4901235998 -0.9706665277 17.15802193
rfoot  1.705509424 -21.68385124 -35.33473969
rtoes  4.052459762 19.60162071 -101.924624
lfemur  -3.358746767 -15.60739803 -22.23216629
ltibia  7.069794178 0.09299255162 6.483708858
lfoot  0.1302561909 -21.76120758 35.63387299
ltoes  -8.717515768 -18.07056693 -116.3044346
